<?xml version="1.0" encoding="UTF-8" standalone="no"?>
<svg
   xmlns:dc="http://purl.org/dc/elements/1.1/"
   xmlns:cc="http://creativecommons.org/ns#"
   xmlns:rdf="http://www.w3.org/1999/02/22-rdf-syntax-ns#"
   xmlns:svg="http://www.w3.org/2000/svg"
   xmlns="http://www.w3.org/2000/svg"
   xmlns:sodipodi="http://sodipodi.sourceforge.net/DTD/sodipodi-0.dtd"
   xmlns:inkscape="http://www.inkscape.org/namespaces/inkscape"
   id="ic_xbit"
   width="24"
   height="24"
   viewBox="0 0 24 24"
   version="1.1"
   sodipodi:docname="ic-coin-xbit.svg"
   inkscape:version="0.92.4 (unknown)">
  <metadata
     id="metadata14">
    <rdf:RDF>
      <cc:Work
         rdf:about="">
        <dc:format>image/svg+xml</dc:format>
        <dc:type
           rdf:resource="http://purl.org/dc/dcmitype/StillImage" />
      </cc:Work>
    </rdf:RDF>
  </metadata>
  <sodipodi:namedview
     pagecolor="#ffffff"
     bordercolor="#666666"
     borderopacity="1"
     objecttolerance="10"
     gridtolerance="10"
     guidetolerance="10"
     inkscape:pageopacity="0"
     inkscape:pageshadow="2"
     inkscape:window-width="1375"
     inkscape:window-height="876"
     id="namedview12"
     showgrid="false"
     showguides="true"
     inkscape:guide-bbox="true"
     inkscape:zoom="29.25"
     inkscape:cx="12"
     inkscape:cy="12"
     inkscape:window-x="65"
     inkscape:window-y="24"
     inkscape:window-maximized="1"
     inkscape:current-layer="ic_xbit">
    <sodipodi:guide
       position="21.305085,18.050847"
       orientation="0,1"
       id="guide850"
       inkscape:locked="false" />
    <sodipodi:guide
       position="8.7457627,20.59322"
       orientation="1,0"
       id="guide870"
       inkscape:locked="false" />
    <sodipodi:guide
       position="28.728814,11.949153"
       orientation="1,0"
       id="guide874"
       inkscape:locked="false" />
  </sodipodi:namedview>
  <defs
     id="defs4">
    <style
       type="text/css"
       id="style2">
            .cls-1{fill:#4d7d4b}.cls-2{fill:none}
        </style>
  </defs>
  <path
     id="Path_18928"
     d="M 12,2 A 10,10 0 1 0 22,12 10,10 0 0 0 12,2 Z m 0,19.25 A 9.25,9.25 0 1 1 21.25,12 9.25,9.25 0 0 1 12,21.25 Z"
     class="cls-1"
     data-name="Path 18928"
     inkscape:connector-curvature="0"
     style="fill:#488c48;fill-opacity:1" />
  <path
     id="Rectangle_4543"
     d="M0 0h24v24H0z"
     class="cls-2"
     data-name="Rectangle 4543" />
  <path
     style="opacity:1;fill:#488c48;fill-opacity:1;stroke:none;stroke-width:0.94915253;stroke-miterlimit:4;stroke-dasharray:none;stroke-opacity:1"
     d="M 12 3.4570312 A 8.5423737 8.5423737 0 0 0 3.4570312 12 A 8.5423737 8.5423737 0 0 0 12 20.542969 A 8.5423737 8.5423737 0 0 0 20.542969 12 A 8.5423737 8.5423737 0 0 0 12 3.4570312 z M 8.7246094 5.9726562 L 12.890625 5.9726562 C 14.133854 5.9726562 15.092882 6.2313802 15.765625 6.7480469 C 16.438368 7.2647135 16.773438 8.0005209 16.773438 8.953125 C 16.773438 9.6904514 16.602258 10.276953 16.257812 10.712891 C 15.913368 11.148828 15.407595 11.419705 14.740234 11.527344 C 15.542144 11.699566 16.164149 12.060417 16.605469 12.609375 C 17.05217 13.152951 17.275391 13.834288 17.275391 14.652344 C 17.275391 15.728733 16.907726 16.559852 16.175781 17.146484 C 15.443837 17.733116 14.403602 18.027344 13.052734 18.027344 L 8.7246094 18.027344 L 8.7246094 16.121094 L 8 16.121094 L 8 15.181641 L 8.7246094 15.181641 L 8.7246094 5.9726562 z M 10.355469 7.3144531 L 10.355469 10.947266 L 12.769531 10.947266 C 13.566059 10.947266 14.159375 10.79796 14.546875 10.501953 C 14.939757 10.200564 15.134766 9.744401 15.134766 9.1308594 C 15.134766 8.5226997 14.939757 8.0670139 14.546875 7.765625 C 14.159375 7.4642361 13.566059 7.3144531 12.769531 7.3144531 L 10.355469 7.3144531 z M 10.355469 12.269531 L 10.355469 15.181641 L 12.525391 15.181641 L 12.525391 16.121094 L 10.355469 16.121094 L 10.355469 16.685547 L 12.972656 16.685547 C 13.849913 16.685547 14.498177 16.505122 14.917969 16.144531 C 15.343142 15.778559 15.554686 15.2227 15.554688 14.474609 C 15.554688 13.721137 15.343142 13.165755 14.917969 12.810547 C 14.498177 12.449957 13.849913 12.269531 12.972656 12.269531 L 10.355469 12.269531 z "
     id="path830" />
</svg>
