<?xml version="1.0" encoding="UTF-8" standalone="no"?>
<svg
   xmlns:dc="http://purl.org/dc/elements/1.1/"
   xmlns:cc="http://creativecommons.org/ns#"
   xmlns:rdf="http://www.w3.org/1999/02/22-rdf-syntax-ns#"
   xmlns:svg="http://www.w3.org/2000/svg"
   xmlns="http://www.w3.org/2000/svg"
   xmlns:sodipodi="http://sodipodi.sourceforge.net/DTD/sodipodi-0.dtd"
   xmlns:inkscape="http://www.inkscape.org/namespaces/inkscape"
   id="ic_zxbit"
   width="24"
   height="24"
   viewBox="0 0 24 24"
   version="1.1"
   sodipodi:docname="ic-coin-zxbit.svg"
   inkscape:version="0.92.4 (unknown)"
   inkscape:export-filename="/home/lulworm/coins/bitchain2/src/qt/bitchain/res/img/ic-coin-zxbit.svg.png"
   inkscape:export-xdpi="96"
   inkscape:export-ydpi="96">
  <metadata
     id="metadata14">
    <rdf:RDF>
      <cc:Work
         rdf:about="">
        <dc:format>image/svg+xml</dc:format>
        <dc:type
           rdf:resource="http://purl.org/dc/dcmitype/StillImage" />
      </cc:Work>
    </rdf:RDF>
  </metadata>
  <sodipodi:namedview
     pagecolor="#ffffff"
     bordercolor="#666666"
     borderopacity="1"
     objecttolerance="10"
     gridtolerance="10"
     guidetolerance="10"
     inkscape:pageopacity="0"
     inkscape:pageshadow="2"
     inkscape:window-width="1375"
     inkscape:window-height="876"
     id="namedview12"
     showgrid="false"
     inkscape:zoom="29.25"
     inkscape:cx="10.017094"
     inkscape:cy="10.763032"
     inkscape:window-x="65"
     inkscape:window-y="24"
     inkscape:window-maximized="1"
     inkscape:current-layer="ic_zxbit"
     showguides="true"
     inkscape:guide-bbox="true" />
  <defs
     id="defs4">
    <style
       type="text/css"
       id="style2">
            .cls-1{fill:#4d7d4b}.cls-2{fill:none}
        </style>
  </defs>
  <path
     id="Rectangle_4542"
     d="M0 0h24v24H0z"
     class="cls-2"
     data-name="Rectangle 4542" />
  <g
     id="g835"
     inkscape:export-xdpi="115.2"
     inkscape:export-ydpi="115.2">
    <path
       style="fill:#4d7d4b"
       inkscape:connector-curvature="0"
       data-name="Path 18926"
       class="cls-1"
       d="M 12,2 A 10,10 0 1 0 22,12 10,10 0 0 0 12,2 Z m 0,19.25 A 9.25,9.25 0 1 1 21.25,12 9.25,9.25 0 0 1 12,21.25 Z"
       id="Path_18926" />
    <path
       id="path838"
       d="M 12.009766 3.4707031 A 8.5032587 8.5032587 0 0 0 3.5058594 11.972656 A 8.5032587 8.5032587 0 0 0 12.009766 20.476562 A 8.5032587 8.5032587 0 0 0 20.511719 11.972656 A 8.5032587 8.5032587 0 0 0 12.009766 3.4707031 z M 11.464844 7.0585938 L 14.824219 7.0585938 C 15.826823 7.0585938 16.59809 7.2669269 17.140625 7.6835938 C 17.68316 8.1002603 17.955078 8.6927084 17.955078 9.4609375 C 17.955078 10.055556 17.81684 10.529297 17.539062 10.880859 C 17.261285 11.232422 16.852648 11.45226 16.314453 11.539062 C 16.961154 11.677952 17.462457 11.967448 17.818359 12.410156 C 18.178602 12.848524 18.359375 13.398872 18.359375 14.058594 C 18.359375 14.926649 18.062934 15.597222 17.472656 16.070312 C 16.882378 16.543404 16.042535 16.779297 14.953125 16.779297 L 11.464844 16.779297 L 11.464844 14.962891 L 10.605469 14.962891 L 10.605469 14.191406 L 11.464844 14.191406 L 11.464844 7.0585938 z M 12.779297 8.140625 L 12.779297 11.070312 L 14.726562 11.070312 C 15.368927 11.070312 15.845703 10.94965 16.158203 10.710938 C 16.475043 10.467879 16.632812 10.10026 16.632812 9.6054688 C 16.632812 9.1150171 16.475043 8.7469621 16.158203 8.5039062 C 15.845703 8.260851 15.368924 8.140625 14.726562 8.140625 L 12.779297 8.140625 z M 5.765625 9.4882812 L 11.457031 9.4882812 L 11.457031 10.582031 L 6.9511719 15.822266 L 11.457031 15.822266 L 11.457031 16.779297 L 5.6035156 16.779297 L 5.6035156 15.685547 L 10.109375 10.445312 L 5.765625 10.445312 L 5.765625 9.4882812 z M 12.779297 12.136719 L 12.779297 14.191406 L 13.068359 14.191406 L 13.068359 14.962891 L 12.779297 14.962891 L 12.779297 15.699219 L 14.888672 15.699219 C 15.596137 15.699219 16.11849 15.552517 16.457031 15.261719 C 16.799913 14.96658 16.972656 14.517362 16.972656 13.914062 C 16.972656 13.306427 16.799913 12.860677 16.457031 12.574219 C 16.11849 12.28342 15.596137 12.136719 14.888672 12.136719 L 12.779297 12.136719 z "
       style="opacity:1;fill:#4d7d4b;fill-opacity:1;stroke:none;stroke-width:0.99789029;stroke-miterlimit:4;stroke-dasharray:none;stroke-opacity:1" />
  </g>
</svg>
