<?xml version="1.0" encoding="UTF-8" standalone="no"?>
<svg
   xmlns:dc="http://purl.org/dc/elements/1.1/"
   xmlns:cc="http://creativecommons.org/ns#"
   xmlns:rdf="http://www.w3.org/1999/02/22-rdf-syntax-ns#"
   xmlns:svg="http://www.w3.org/2000/svg"
   xmlns="http://www.w3.org/2000/svg"
   xmlns:sodipodi="http://sodipodi.sourceforge.net/DTD/sodipodi-0.dtd"
   xmlns:inkscape="http://www.inkscape.org/namespaces/inkscape"
   id="ic_empty_Dark_zxbit"
   width="100"
   height="100"
   viewBox="0 0 100 100"
   version="1.1"
   sodipodi:docname="img-empty-privacy-dark.svg"
   inkscape:version="0.92.4 (unknown)">
  <metadata
     id="metadata23">
    <rdf:RDF>
      <cc:Work
         rdf:about="">
        <dc:format>image/svg+xml</dc:format>
        <dc:type
           rdf:resource="http://purl.org/dc/dcmitype/StillImage" />
      </cc:Work>
    </rdf:RDF>
  </metadata>
  <sodipodi:namedview
     pagecolor="#ffffff"
     bordercolor="#666666"
     borderopacity="1"
     objecttolerance="10"
     gridtolerance="10"
     guidetolerance="10"
     inkscape:pageopacity="0"
     inkscape:pageshadow="2"
     inkscape:window-width="1375"
     inkscape:window-height="876"
     id="namedview21"
     showgrid="false"
     showguides="true"
     inkscape:guide-bbox="true"
     inkscape:zoom="4.72"
     inkscape:cx="48.504023"
     inkscape:cy="41.125036"
     inkscape:window-x="65"
     inkscape:window-y="24"
     inkscape:window-maximized="1"
     inkscape:current-layer="ic_empty_Dark_zxbit" />
  <defs
     id="defs4">
    <style
       type="text/css"
       id="style2">
            .cls-1{fill:#3d4a3d}.cls-2{fill:#9ea59e}.cls-3{fill:none}
        </style>
  </defs>
  <path
     id="Rectangle_4748"
     d="M0 0h100v100H0z"
     class="cls-3"
     data-name="Rectangle 4748" />
  <g
     id="g893">
    <path
       id="Path_19026"
       d="M 50,26 A 24,24 0 1 0 74,50 24,24 0 0 0 50,26 Z m 0,42 A 18,18 0 1 1 68,50 18,18 0 0 1 50,68 Z"
       class="cls-1"
       data-name="Path 19026"
       inkscape:connector-curvature="0"
       style="fill:#3d4a3d" />
    <g
       data-name="Group 9078"
       id="Group_9078">
      <path
         style="fill:#9ea59e"
         inkscape:connector-curvature="0"
         data-name="Path 19027"
         class="cls-2"
         d="M 50,31 A 19,19 0 1 0 69,50 19.021,19.021 0 0 0 50,31 Z m 0,36 A 17,17 0 1 1 67,50 17.019,17.019 0 0 1 50,67 Z"
         id="Path_19027" />
      <path
         style="fill:#9ea59e"
         inkscape:connector-curvature="0"
         transform="translate(83,56)"
         data-name="Rectangle 4744"
         class="cls-2"
         d="M 0,0 H 2 V 4 H 0 Z"
         id="Rectangle_4744" />
      <path
         style="fill:#9ea59e"
         inkscape:connector-curvature="0"
         transform="translate(83,44)"
         data-name="Rectangle 4745"
         class="cls-2"
         d="M 0,0 H 2 V 8 H 0 Z"
         id="Rectangle_4745" />
      <path
         style="fill:#9ea59e"
         inkscape:connector-curvature="0"
         transform="translate(15,48)"
         data-name="Rectangle 4746"
         class="cls-2"
         d="M 0,0 H 2 V 8 H 0 Z"
         id="Rectangle_4746" />
      <path
         style="fill:#9ea59e"
         inkscape:connector-curvature="0"
         transform="translate(15,40)"
         data-name="Rectangle 4747"
         class="cls-2"
         d="M 0,0 H 2 V 4 H 0 Z"
         id="Rectangle_4747" />
      <path
         style="fill:#9ea59e"
         inkscape:connector-curvature="0"
         data-name="Path 19028"
         class="cls-2"
         d="M 95.162,71 H 85 v -7 h -2 v 9 h 7.838 L 76,90.456 61.162,73 H 68 V 71 H 63.539 A 24.989,24.989 0 0 0 41.139,26.626 L 24,6.456 4.838,29 H 15 v 7 h 2 V 27 H 9.162 L 24,9.544 38.838,27 H 32 v 2 h 4.461 a 24.989,24.989 0 0 0 22.4,44.374 L 76,93.544 Z M 27,50 A 23,23 0 1 1 50,73 23.026,23.026 0 0 1 27,50 Z"
         id="Path_19028" />
    </g>
    <text
       id="text854"
       y="58.05299"
       x="37.45269"
       style="font-style:normal;font-weight:normal;font-size:40px;line-height:1.25;font-family:sans-serif;letter-spacing:0px;word-spacing:0px;fill:#9ea59e;fill-opacity:1;stroke:none"
       xml:space="preserve"><tspan
         style="font-size:24px;fill:#9ea59e;fill-opacity:1"
         y="58.05299"
         x="37.45269"
         id="tspan852"
         sodipodi:role="line">z</tspan></text>
    <text
       id="text858"
       y="58.062077"
       x="46.635025"
       style="font-style:normal;font-weight:normal;font-size:40px;line-height:1.25;font-family:sans-serif;letter-spacing:0px;word-spacing:0px;fill:#9ea59e;fill-opacity:1;stroke:none"
       xml:space="preserve"><tspan
         style="font-size:24px"
         y="58.062077"
         x="46.635025"
         id="tspan856"
         sodipodi:role="line">B</tspan></text>
    <rect
       y="53.775002"
       x="47.375835"
       height="1.2840382"
       width="4.5550847"
       id="rect862"
       style="fill:#9ea59e;fill-opacity:1;stroke:none;stroke-width:0.94391149;stroke-miterlimit:4;stroke-dasharray:none;stroke-opacity:1" />
  </g>
</svg>
