<?xml version="1.0" encoding="UTF-8" standalone="no"?>
<svg
   xmlns:dc="http://purl.org/dc/elements/1.1/"
   xmlns:cc="http://creativecommons.org/ns#"
   xmlns:rdf="http://www.w3.org/1999/02/22-rdf-syntax-ns#"
   xmlns:svg="http://www.w3.org/2000/svg"
   xmlns="http://www.w3.org/2000/svg"
   xmlns:sodipodi="http://sodipodi.sourceforge.net/DTD/sodipodi-0.dtd"
   xmlns:inkscape="http://www.inkscape.org/namespaces/inkscape"
   id="ic_empty_transactions"
   width="100"
   height="100"
   viewBox="0 0 100 100"
   version="1.1"
   sodipodi:docname="img-empty-transactions.svg"
   inkscape:version="0.92.4 (unknown)">
  <metadata
     id="metadata24">
    <rdf:RDF>
      <cc:Work
         rdf:about="">
        <dc:format>image/svg+xml</dc:format>
        <dc:type
           rdf:resource="http://purl.org/dc/dcmitype/StillImage" />
      </cc:Work>
    </rdf:RDF>
  </metadata>
  <sodipodi:namedview
     pagecolor="#ffffff"
     bordercolor="#666666"
     borderopacity="1"
     objecttolerance="10"
     gridtolerance="10"
     guidetolerance="10"
     inkscape:pageopacity="0"
     inkscape:pageshadow="2"
     inkscape:window-width="1375"
     inkscape:window-height="876"
     id="namedview22"
     showgrid="false"
     inkscape:zoom="4.72"
     inkscape:cx="44.575499"
     inkscape:cy="44.635726"
     inkscape:window-x="65"
     inkscape:window-y="24"
     inkscape:window-maximized="1"
     inkscape:current-layer="ic_empty_transactions" />
  <defs
     id="defs4">
    <style
       type="text/css"
       id="style2">
            .cls-1{fill:#d6d6d6}.cls-2{fill:#666}.cls-3{fill:none}
        </style>
  </defs>
  <g
     id="g879">
    <path
       id="Path_18970"
       d="M 50,26 A 24,24 0 1 0 74,50 24,24 0 0 0 50,26 Z m 0,42 A 18,18 0 1 1 68,50 18,18 0 0 1 50,68 Z"
       class="cls-1"
       data-name="Path 18970"
       inkscape:connector-curvature="0"
       style="fill:#d6d6d6" />
    <path
       style="fill:#666666"
       inkscape:connector-curvature="0"
       data-name="Rectangle 4663"
       class="cls-2"
       d="m 41.529,54.03 h 9.582 v 1.993 h -9.582 z"
       id="Rectangle_4663" />
    <g
       data-name="Group 9013"
       id="Group_9013">
      <path
         style="fill:#666666"
         inkscape:connector-curvature="0"
         data-name="Path 18972"
         class="cls-2"
         d="M 50,31 A 19,19 0 1 0 69,50 19.021,19.021 0 0 0 50,31 Z m 0,36 A 17,17 0 1 1 67,50 17.019,17.019 0 0 1 50,67 Z"
         id="Path_18972" />
      <path
         style="fill:#666666"
         inkscape:connector-curvature="0"
         transform="translate(83,56)"
         data-name="Rectangle 4664"
         class="cls-2"
         d="M 0,0 H 2 V 4 H 0 Z"
         id="Rectangle_4664" />
      <path
         style="fill:#666666"
         inkscape:connector-curvature="0"
         transform="translate(83,44)"
         data-name="Rectangle 4665"
         class="cls-2"
         d="M 0,0 H 2 V 8 H 0 Z"
         id="Rectangle_4665" />
      <path
         style="fill:#666666"
         inkscape:connector-curvature="0"
         transform="translate(15,48)"
         data-name="Rectangle 4666"
         class="cls-2"
         d="M 0,0 H 2 V 8 H 0 Z"
         id="Rectangle_4666" />
      <path
         style="fill:#666666"
         inkscape:connector-curvature="0"
         transform="translate(15,40)"
         data-name="Rectangle 4667"
         class="cls-2"
         d="M 0,0 H 2 V 4 H 0 Z"
         id="Rectangle_4667" />
      <path
         style="fill:#666666"
         inkscape:connector-curvature="0"
         data-name="Path 18973"
         class="cls-2"
         d="M 95.162,71 H 85 v -7 h -2 v 9 h 7.838 L 76,90.456 61.162,73 H 68 V 71 H 63.539 A 24.989,24.989 0 0 0 41.139,26.626 L 24,6.456 4.838,29 H 15 v 7 h 2 V 27 H 9.162 L 24,9.544 38.838,27 H 32 v 2 h 4.461 a 24.989,24.989 0 0 0 22.4,44.374 L 76,93.544 Z M 27,50 A 23,23 0 1 1 50,73 23.026,23.026 0 0 1 27,50 Z"
         id="Path_18973" />
    </g>
    <path
       data-name="Rectangle 4668"
       class="cls-3"
       d="M0 0h100v100H0z"
       id="Rectangle_4668" />
    <text
       id="text865"
       y="62.54731"
       x="39.849663"
       style="font-style:normal;font-weight:normal;font-size:40px;line-height:1.25;font-family:sans-serif;letter-spacing:0px;word-spacing:0px;fill:#666666;fill-opacity:1;stroke:none"
       xml:space="preserve"><tspan
         style="font-size:34.66666794px;fill:#666666;fill-opacity:1"
         y="62.54731"
         x="39.849663"
         id="tspan863"
         sodipodi:role="line">B</tspan></text>
  </g>
</svg>
