<?xml version="1.0" encoding="UTF-8" standalone="no"?>
<svg
   xmlns:dc="http://purl.org/dc/elements/1.1/"
   xmlns:cc="http://creativecommons.org/ns#"
   xmlns:rdf="http://www.w3.org/1999/02/22-rdf-syntax-ns#"
   xmlns:svg="http://www.w3.org/2000/svg"
   xmlns="http://www.w3.org/2000/svg"
   xmlns:sodipodi="http://sodipodi.sourceforge.net/DTD/sodipodi-0.dtd"
   xmlns:inkscape="http://www.inkscape.org/namespaces/inkscape"
   width="49"
   height="60"
   viewBox="0 0 49 60"
   version="1.1"
   id="svg11"
   sodipodi:docname="img-nav-logo2.svg"
   inkscape:version="0.92.4 (unknown)">
  <metadata
     id="metadata15">
    <rdf:RDF>
      <cc:Work
         rdf:about="">
        <dc:format>image/svg+xml</dc:format>
        <dc:type
           rdf:resource="http://purl.org/dc/dcmitype/StillImage" />
        <dc:title></dc:title>
      </cc:Work>
    </rdf:RDF>
  </metadata>
  <sodipodi:namedview
     pagecolor="#ffffff"
     bordercolor="#666666"
     borderopacity="1"
     objecttolerance="10"
     gridtolerance="10"
     guidetolerance="10"
     inkscape:pageopacity="0"
     inkscape:pageshadow="2"
     inkscape:window-width="1375"
     inkscape:window-height="876"
     id="namedview13"
     showgrid="false"
     showguides="true"
     inkscape:guide-bbox="true"
     inkscape:zoom="11.125147"
     inkscape:cx="21.629193"
     inkscape:cy="28.244335"
     inkscape:window-x="65"
     inkscape:window-y="24"
     inkscape:window-maximized="1"
     inkscape:current-layer="svg11">
    <sodipodi:guide
       position="12.494217,53.302668"
       orientation="1,0"
       id="guide4532"
       inkscape:locked="false" />
    <sodipodi:guide
       position="55.010511,21.572749"
       orientation="0,1"
       id="guide4614"
       inkscape:locked="false" />
  </sodipodi:namedview>
  <defs
     id="defs4">
    <style
       type="text/css"
       id="style2">
            .cls-1{fill:#fff}
        </style>
  </defs>
  <g
     id="ic_bitchain"
     transform="translate(-4335.322,-29.279266)">
    <path
       id="Path_18615"
       d="M 4295.475,3.715 4271,8.833 V 42.77 c 0,4.969 5.089,9.664 10.6,13.317 a 105.238,105.238 0 0 0 13.5,7.478 l 0.4,0.15 0.4,-0.15 C 4296.892,63.192 4320,53.354 4320,42.77 V 8.833 Z m 22.539,39.055 c 0,7.4 -15.911,15.23 -22.539,17.838 l -0.323,-0.124 -0.124,-0.05 -0.224,-0.1 -0.124,-0.05 -0.224,-0.1 -0.074,-0.025 -0.273,-0.124 -0.075,-0.025 -0.3,-0.124 -0.05,-0.025 -0.323,-0.124 h -0.024 l -0.373,-0.15 h -0.025 a 77.919,77.919 0 0 1 -11.369,-6.161 l -0.447,-0.3 -0.446,-0.323 -0.422,-0.3 -0.025,-0.025 -0.4,-0.3 -0.025,-0.025 -0.4,-0.3 -0.024,-0.025 -0.4,-0.3 -0.05,-0.025 -0.372,-0.273 -0.05,-0.025 -0.348,-0.273 -0.049,-0.05 -0.323,-0.273 -0.05,-0.05 -0.3,-0.273 -0.075,-0.05 -0.273,-0.273 -0.074,-0.074 -0.274,-0.273 -0.074,-0.074 -0.273,-0.248 -0.074,-0.074 -0.249,-0.248 -0.074,-0.1 -0.224,-0.248 -0.075,-0.1 -0.223,-0.248 -0.075,-0.1 -0.2,-0.248 -0.1,-0.1 -0.173,-0.223 -0.1,-0.124 -0.173,-0.223 -0.1,-0.124 -0.15,-0.223 -0.074,-0.124 -0.15,-0.223 -0.074,-0.15 a 1.442,1.442 0 0 0 -0.124,-0.2 l -0.1,-0.15 a 0.755,0.755 0 0 1 -0.1,-0.2 l -0.075,-0.15 c -0.025,-0.074 -0.074,-0.124 -0.1,-0.2 a 0.854,0.854 0 0 0 -0.075,-0.15 1.7,1.7 0 0 1 -0.074,-0.2 c -0.025,-0.074 -0.05,-0.1 -0.075,-0.174 a 1.191,1.191 0 0 0 -0.075,-0.174 0.471,0.471 0 0 1 -0.05,-0.174 c 0,-0.05 -0.05,-0.124 -0.05,-0.174 a 0.453,0.453 0 0 0 -0.05,-0.174 c -0.024,-0.05 -0.024,-0.1 -0.05,-0.174 -0.026,-0.074 -0.025,-0.124 -0.049,-0.2 a 0.384,0.384 0 0 1 -0.025,-0.15 c 0,-0.05 -0.025,-0.124 -0.025,-0.2 0,-0.076 -0.024,-0.1 -0.024,-0.15 a 0.924,0.924 0 0 0 -0.05,-0.223 c -0.025,-0.074 0,-0.074 0,-0.124 V 10.647 l 22.417,-3.6 h 0.2 l 22.417,3.6 0.025,32.124 z"
       class="cls-1"
       data-name="Path 18615"
       inkscape:connector-curvature="0"
       style="fill:#ffffff" />
    <path
       id="Path_18616"
       d="m 4424.748,197.505 -16.977,2.733 -3.5,0.547 v 29.093 c 0,6.733 14.47,13.863 20.477,16.223 a 66.344,66.344 0 0 0 14.545,-7.925 c 0.347,-0.273 0.72,-0.547 1.043,-0.82 a 17.266,17.266 0 0 0 3.823,-4.124 6.427,6.427 0 0 0 1.066,-3.33 v -29.117 z m -9.878,15.428 h 11.939 v 2.485 h -11.939 z m 23.282,1.168 c 0,5.888 -4.1,9.69 -9.755,9.69 h -7.843 v 12.422 h -3.1 v -15.23 h 10.525 c 4.219,0 6.974,-2.559 6.974,-6.882 0,-4.273 -2.755,-6.758 -6.925,-6.758 h -3.277 l -7.843,0.025 v -2.832 h 11.467 c 5.684,0 9.78,3.677 9.78,9.565"
       class="cls-1"
       data-name="Path 18616"
       transform="translate(-129.272,-187.976)"
       inkscape:connector-curvature="0"
       style="fill:#ffffff" />
    <path
       id="Path_18617"
       d="M 4295.475,3.715 4271,8.833 V 42.77 c 0,4.969 5.089,9.664 10.6,13.317 a 105.276,105.276 0 0 0 13.5,7.478 l 0.4,0.15 V 63.67 l 0.349,-0.132 c 0.993,-0.373 24.1,-10.211 24.1,-20.795 V 8.833 Z m 22.516,39.029 c 0,7.4 -15.911,15.23 -22.539,17.838 v 0.007 l -0.274,-0.106 -0.125,-0.05 -0.223,-0.074 -0.125,-0.05 -0.224,-0.1 -0.074,-0.025 -0.273,-0.124 -0.075,-0.025 -0.3,-0.124 -0.049,-0.025 -0.323,-0.15 h -0.049 l -0.372,-0.15 h -0.025 A 77,77 0 0 1 4281.6,53.4 l -0.446,-0.3 -0.447,-0.348 -0.422,-0.3 -0.024,-0.025 -0.4,-0.3 -0.024,-0.025 -0.4,-0.3 -0.026,-0.025 -0.4,-0.3 -0.049,-0.025 -0.373,-0.273 -0.05,-0.025 -0.348,-0.273 -0.049,-0.048 -0.323,-0.273 -0.05,-0.05 -0.3,-0.273 -0.074,-0.05 -0.273,-0.273 -0.075,-0.074 -0.273,-0.273 -0.075,-0.074 -0.273,-0.248 -0.074,-0.074 -0.248,-0.248 -0.075,-0.1 -0.224,-0.248 -0.074,-0.1 -0.224,-0.248 -0.074,-0.1 -0.224,-0.2 -0.1,-0.1 -0.174,-0.223 -0.1,-0.124 -0.174,-0.223 -0.1,-0.124 -0.151,-0.223 -0.074,-0.124 -0.15,-0.223 -0.074,-0.124 a 1.4,1.4 0 0 0 -0.125,-0.2 l -0.1,-0.15 -0.1,-0.2 -0.074,-0.15 c -0.025,-0.074 -0.075,-0.124 -0.1,-0.2 a 0.821,0.821 0 0 0 -0.075,-0.15 1.616,1.616 0 0 1 -0.074,-0.2 c -0.025,-0.074 -0.05,-0.1 -0.075,-0.174 a 1.138,1.138 0 0 0 -0.074,-0.174 0.37,0.37 0 0 1 -0.05,-0.174 c 0,-0.074 -0.049,-0.15 -0.049,-0.2 a 0.445,0.445 0 0 0 -0.05,-0.174 c -0.024,-0.05 -0.024,-0.1 -0.049,-0.174 -0.025,-0.074 -0.025,-0.124 -0.049,-0.2 a 0.359,0.359 0 0 1 -0.025,-0.15 c 0,-0.05 -0.025,-0.124 -0.025,-0.2 0,-0.076 -0.025,-0.1 -0.025,-0.15 a 0.971,0.971 0 0 0 -0.05,-0.223 c -0.025,-0.074 0,-0.074 0,-0.124 V 10.647 l 22.417,-3.6 h 0.2 l 22.417,3.6 z"
       class="cls-1"
       data-name="Path 18617"
       inkscape:connector-curvature="0"
       style="fill:#ffffff" />
    <path
       id="Path_18618"
       d="m 4424.773,197.505 -17,2.733 -3.5,0.547 v 29.093 c 0,6.733 14.47,13.863 20.477,16.223 a 66.331,66.331 0 0 0 14.545,-7.925 c 0.348,-0.273 0.72,-0.547 1.043,-0.82 a 17.259,17.259 0 0 0 3.823,-4.124 c -2.038,-0.106 -2.021,-0.119 0.023,-0.025 a 6.42,6.42 0 0 0 1.067,-3.33 v -29.092 z m -9.9,15.428 h 11.913 v 2.485 h -11.913 z m 5.659,23.278 h -3.1 l 0.025,-15.228 h 10.525 c 4.219,0 6.974,-2.559 6.974,-6.882 0,-4.273 -2.755,-6.758 -6.925,-6.758 h -3.278 l -7.843,0.025 v -2.832 h 11.466 c 5.659,0 9.754,3.7 9.754,9.54 0,5.888 -4.07,9.69 -9.754,9.69 h -7.817 z"
       class="cls-1"
       data-name="Path 18618"
       transform="translate(-129.272,-187.976)"
       inkscape:connector-curvature="0"
       style="fill:#ffffff" />
  </g>
  <g
     id="g4714"
     style="fill:#ffffff;fill-opacity:1">
    <rect
       ry="2.5625069"
       y="5.3958817"
       x="0.093836658"
       height="23.603937"
       width="23.505512"
       id="rect825"
       style="fill:#ffffff;fill-opacity:1;stroke:none;stroke-width:1.02775824;stroke-miterlimit:4;stroke-dasharray:none;stroke-opacity:1" />
    <rect
       style="fill:#ffffff;fill-opacity:1;stroke:none;stroke-width:0.9352299;stroke-miterlimit:4;stroke-dasharray:none;stroke-opacity:1"
       id="rect4610"
       width="21.38933"
       height="21.478893"
       x="25.437866"
       y="7.5102801"
       ry="2.6445391" />
    <rect
       style="fill:#ffffff;fill-opacity:1;stroke:none;stroke-width:1.02775824;stroke-miterlimit:4;stroke-dasharray:none;stroke-opacity:1"
       id="rect4530"
       width="23.505512"
       height="23.603937"
       x="0.093835868"
       y="30.640636"
       ry="2.6523905" />
    <rect
       ry="2.4726195"
       y="30.640636"
       x="25.400652"
       height="23.603937"
       width="23.505512"
       id="rect4612"
       style="fill:#ffffff;fill-opacity:1;stroke:none;stroke-width:1.02775824;stroke-miterlimit:4;stroke-dasharray:none;stroke-opacity:1" />
  </g>
</svg>
