<?xml version="1.0" encoding="UTF-8" standalone="no"?>
<svg
   xmlns:dc="http://purl.org/dc/elements/1.1/"
   xmlns:cc="http://creativecommons.org/ns#"
   xmlns:rdf="http://www.w3.org/1999/02/22-rdf-syntax-ns#"
   xmlns:svg="http://www.w3.org/2000/svg"
   xmlns="http://www.w3.org/2000/svg"
   xmlns:sodipodi="http://sodipodi.sourceforge.net/DTD/sodipodi-0.dtd"
   xmlns:inkscape="http://www.inkscape.org/namespaces/inkscape"
   width="300px"
   height="100px"
   viewBox="0 0 300 100"
   version="1.1"
   id="svg27"
   sodipodi:docname="img-logo-bitchain.svg"
   inkscape:version="0.92.4 (unknown)">
  <metadata
     id="metadata33">
    <rdf:RDF>
      <cc:Work
         rdf:about="">
        <dc:format>image/svg+xml</dc:format>
        <dc:type
           rdf:resource="http://purl.org/dc/dcmitype/StillImage" />
      </cc:Work>
    </rdf:RDF>
  </metadata>
  <defs
     id="defs31" />
  <sodipodi:namedview
     pagecolor="#ffffff"
     bordercolor="#666666"
     borderopacity="1"
     objecttolerance="10"
     gridtolerance="10"
     guidetolerance="10"
     inkscape:pageopacity="0"
     inkscape:pageshadow="2"
     inkscape:window-width="1375"
     inkscape:window-height="876"
     id="namedview29"
     showgrid="false"
     showguides="true"
     inkscape:guide-bbox="true"
     inkscape:zoom="2.1666667"
     inkscape:cx="168.15385"
     inkscape:cy="-20.325874"
     inkscape:window-x="65"
     inkscape:window-y="24"
     inkscape:window-maximized="1"
     inkscape:current-layer="svg27">
    <sodipodi:guide
       position="159.69231,93.230769"
       orientation="0,1"
       id="guide4906"
       inkscape:locked="false" />
    <sodipodi:guide
       position="5.0769231,60.923077"
       orientation="1,0"
       id="guide4908"
       inkscape:locked="false" />
  </sodipodi:namedview>
  <!-- Generator: Sketch 53.2 (72643) - https://sketchapp.com -->
  <title
     id="title2">Artboard</title>
  <desc
     id="desc4">Created with Sketch.</desc>
  <g
     id="g4904"
     transform="translate(0.07691718,0.1538466)">
    <g
       transform="matrix(1.148433,0,0,1.1915184,137.06608,-71.502052)"
       id="g4890">
      <path
         inkscape:connector-curvature="0"
         id="path4565"
         d="m -111.11191,66.396473 v -0.71671 h 0.64747 q 0.64747,0 1.29495,0 0.64747,0 1.29494,0 0.64748,0 1.29495,0 0.64748,0 1.29495,0 0.64748,0 1.29495,0 0.64747,0 1.29495,0 0.64747,0 1.29495,0 0.64747,0 1.29494,0 0.647479,0 1.294954,0 0.647473,0 1.294948,0 0.647472,0 1.294947,0 0.647473,0 1.294947,0 0.647473,0 1.294947,0 0.647475,0 1.29495,0 0.647474,0 1.294948,0 0.647473,0 1.294947,0 h 0.647475 v 0.71671 q 0,0.71671 0.647472,0.71671 h 0.647475 0.647473 0.647475 v 0.71671 q 0,0.71671 0.647476,0.71671 h 0.647472 v 0.716712 0.71671 0.71672 q 0,0.71671 0,1.43342 0,0.71671 0,1.43342 0,0.71671 0,1.43342 0,0.71671 0,1.43342 0,0.71671 0,1.43342 0,0.71671 0,1.43342 0,0.71671 0,1.43342 0,0.71672 0,1.43343 0,0.71671 0,1.43342 0,0.71671 0,1.43342 0,0.71671 0,1.43342 0,0.71671 0,1.43342 0,0.71671 0,1.43342 0,0.71671 0,1.43342 0,0.71671 0,1.43342 0,0.71671 0,1.43343 v 0.71671 0.71671 0.71671 h -0.647472 q -0.647476,0 -0.647476,0.71671 v 0.71671 h -0.647475 q -0.647473,0 -0.647473,0.71671 v 0.71671 h -0.647475 -0.647472 -0.647475 q -0.647474,0 -1.294947,0 -0.647474,0 -1.294948,0 -0.647475,0 -1.29495,0 -0.647474,0 -1.294947,0 -0.647474,0 -1.294947,0 -0.647475,0 -1.294947,0 -0.647475,0 -1.294948,0 -0.647475,0 -1.294954,0 -0.64747,0 -1.29494,0 -0.64748,0 -1.29495,0 -0.64748,0 -1.29495,0 -0.64747,0 -1.29495,0 -0.64747,0 -1.29495,0 -0.64747,0 -1.29495,0 -0.64747,0 -1.29494,0 -0.64748,0 -1.29495,0 h -0.64747 -0.64748 -0.64747 v -0.71671 q 0,-0.71671 -0.64748,-0.71671 h -0.64747 v -0.71671 -0.71671 -0.71671 q 0,-0.71671 -0.64747,-0.71671 h -0.64748 v -0.71671 -0.71672 -0.71671 -0.71671 -0.71671 -0.71671 -0.71671 -0.71671 -0.71671 -0.71671 -0.71671 -0.71671 -0.71671 -0.71671 -0.71671 -0.71671 -0.71671 -0.71671 -0.71672 -0.71671 -0.71671 -0.71671 -0.71671 -0.71671 -0.71671 -0.71671 -0.71671 -0.71671 -0.71671 -0.71671 -0.71671 -0.71671 -0.71671 -0.71672 h 0.64748 q 0.64747,0 0.64747,-0.71671 v -0.716712 -0.71671 -0.71671 h 0.64747 0.64748 0.64747 q 0.64748,0 0.64748,-0.71671"
         style="fill:#488c48;fill-opacity:1;stroke-width:1.36242616" />
      <path
         inkscape:connector-curvature="0"
         id="path4603"
         d="m -80.033162,70.696745 v -0.71672 h 0.647475 0.647474 0.647474 0.647472 0.647475 q 0.647474,0 1.294947,0 0.647474,0 1.294948,0 0.647475,0 1.29495,0 0.647474,0 1.294947,0 0.647474,0 1.294947,0 0.647475,0 1.294948,0 0.647475,0 1.294948,0 0.647474,0 1.294949,0 0.647474,0 1.294948,0 0.647474,0 1.294947,0 0.647474,0 1.294948,0 0.647475,0 1.294947,0 0.647475,0 1.29495,0 0.647474,0 1.294949,0 h 0.647472 0.647474 0.647474 0.647474 0.647475 v 0.71672 q 0,0.71671 0.485604,0.89588 0.485606,0.17918 0.647474,0.71671 l 0.161869,0.53754 v 0.71671 q 0,0.71671 0,1.43342 0,0.71671 0,1.43342 0,0.71671 0,1.43342 0,0.71671 0,1.43342 0,0.71671 0,1.43342 0,0.71672 0,1.43343 0,0.71671 0,1.43342 0,0.71671 0,1.43342 0,0.71671 0,1.43342 0,0.71671 0,1.43342 0,0.71671 0,1.43342 0,0.71671 0,1.43342 0,0.71671 0,1.43342 0,0.71671 0,1.43343 0,0.71671 0,1.43342 v 0.71671 h -0.647475 q -0.647472,0 -0.647472,0.71671 v 0.71671 l -0.16187,0.53753 q -0.161868,0.53754 -0.647474,0.71671 l -0.485605,0.17918 h -0.647474 -0.647474 -0.647472 q -0.647475,0 -1.294949,0 -0.647475,0 -1.29495,0 -0.647472,0 -1.294947,0 -0.647474,0 -1.294948,0 -0.647473,0 -1.294947,0 -0.647474,0 -1.294948,0 -0.647475,0 -1.294949,0 -0.647473,0 -1.294948,0 -0.647473,0 -1.294948,0 -0.647473,0 -1.294947,0 -0.647473,0 -1.294947,0 -0.647475,0 -1.29495,0 -0.647474,0 -1.294948,0 -0.647473,0 -1.294947,0 h -0.647475 -0.647472 -0.647474 -0.647474 -0.647475 v -0.71671 q 0,-0.71671 -0.647476,-0.71671 h -0.647472 v -0.71671 -0.71671 -0.71671 q 0,-0.71671 0,-1.43342 0,-0.71672 0,-1.43343 0,-0.71671 0,-1.43342 0,-0.71671 0,-1.43342 0,-0.71671 0,-1.43342 0,-0.71671 0,-1.43342 0,-0.71671 0,-1.43342 0,-0.71671 0,-1.43342 0,-0.71671 0,-1.43342 0,-0.71671 0,-1.43343 0,-0.71671 0,-1.43342 0,-0.71671 0,-1.43342 0,-0.71671 0,-1.43342 0,-0.71671 0,-1.43342 0,-0.71671 0,-1.43342 v -0.71671 -0.71671 -0.71671 h 0.647472 q 0.647476,0 0.647476,-0.71671"
         style="fill:#488c48;fill-opacity:1;stroke-width:1.36242616" />
      <path
         inkscape:connector-curvature="0"
         id="path4691"
         d="m -112.40686,103.66542 v -0.71671 h 0.64747 0.64748 0.64747 q 0.64747,0 1.29495,0 0.64747,0 1.29494,0 0.64748,0 1.29495,0 0.64748,0 1.29495,0 0.64748,0 1.29495,0 0.64747,0 1.29495,0 0.64747,0 1.29495,0 0.64747,0 1.29494,0 0.647479,0 1.294954,0 0.647473,0 1.294948,0 0.647472,0 1.294947,0 0.647473,0 1.294947,0 0.647473,0 1.294947,0 0.647475,0 1.29495,0 0.647474,0 1.294948,0 0.647473,0 1.294947,0 h 0.647475 0.647472 0.647475 v 0.71671 q 0,0.71672 0.647473,0.71672 h 0.647475 v 0.71671 q 0,0.71671 0.647476,0.71671 h 0.647472 v 0.71671 0.71671 0.71671 q 0,0.71671 0,1.43342 0,0.71671 0,1.43342 0,0.71671 0,1.43342 0,0.71671 0,1.43342 0,0.71671 0,1.43342 0,0.71671 0,1.43343 0,0.71671 0,1.43342 0,0.71671 0,1.43342 0,0.71671 0,1.43342 0,0.71671 0,1.43342 0,0.71671 0,1.43342 0,0.71671 0,1.43342 0,0.71671 0,1.43342 0,0.71671 0,1.43343 0,0.71671 0,1.43342 0,0.71671 0,1.43342 v 0.71671 0.71671 0.71671 h -0.647472 q -0.647476,0 -0.647476,0.71671 v 0.71671 h -0.647475 -0.647473 -0.647475 q -0.647472,0 -0.647472,0.71671 v 0.71671 h -0.647475 q -0.647474,0 -1.294947,0 -0.647474,0 -1.294948,0 -0.647475,0 -1.29495,0 -0.647474,0 -1.294947,0 -0.647474,0 -1.294947,0 -0.647475,0 -1.294947,0 -0.647475,0 -1.294948,0 -0.647475,0 -1.294954,0 -0.64747,0 -1.29494,0 -0.64748,0 -1.29495,0 -0.64748,0 -1.29495,0 -0.64747,0 -1.29495,0 -0.64747,0 -1.29495,0 -0.64747,0 -1.29495,0 -0.64747,0 -1.29494,0 -0.64748,0 -1.29495,0 h -0.64747 v -0.71671 q 0,-0.71671 -0.64748,-0.71671 h -0.64747 -0.64748 -0.64747 v -0.71671 -0.71671 -0.71671 q 0,-0.71671 -0.64747,-0.71671 h -0.64748 v -0.71671 -0.71671 -0.71671 -0.71671 -0.71671 -0.71672 -0.71671 -0.71671 -0.71671 -0.71671 -0.71671 -0.71671 -0.71671 -0.71671 -0.71671 -0.71671 -0.71671 -0.71671 -0.71671 -0.71671 -0.71671 -0.71672 -0.71671 -0.71671 -0.71671 -0.71671 -0.71671 -0.71671 -0.71671 -0.71671 -0.71671 -0.71671 -0.71671 -0.71671 h 0.64748 q 0.64747,0 0.64747,-0.71671 v -0.71671 -0.71671 -0.71671 h 0.64747 q 0.64748,0 0.64748,-0.71672"
         style="fill:#488c48;fill-opacity:1;stroke-width:1.36242616" />
      <path
         inkscape:connector-curvature="0"
         id="path4701"
         d="m -78.738213,103.66542 v -0.71671 h 0.647474 0.647472 0.647475 q 0.647474,0 1.294947,0 0.647474,0 1.294948,0 0.647475,0 1.29495,0 0.647474,0 1.294947,0 0.647474,0 1.294947,0 0.647475,0 1.294948,0 0.647475,0 1.294948,0 0.647474,0 1.294949,0 0.647474,0 1.294948,0 0.647474,0 1.294947,0 0.647474,0 1.294948,0 0.647475,0 1.294947,0 0.647475,0 1.29495,0 0.647474,0 1.294949,0 0.647472,0 1.294946,0 0.647474,0 1.294948,0 h 0.647475 0.647472 0.647475 v 0.71671 q 0,0.71672 0.647474,0.71672 h 0.647475 v 0.71671 0.71671 0.71671 q 0,0.71671 0.647474,0.71671 h 0.647473 v 0.71671 0.71671 0.71671 0.71671 0.71671 0.71671 0.71671 0.71671 0.71671 0.71671 0.71671 0.71671 0.71672 0.71671 0.71671 0.71671 0.71671 0.71671 0.71671 0.71671 0.71671 0.71671 0.71671 0.71671 0.71671 0.71671 0.71671 0.71671 0.71672 0.71671 0.71671 0.71671 0.71671 0.71671 h -0.647473 q -0.647474,0 -0.647474,0.71671 v 0.71671 0.71671 0.71671 h -0.647475 -0.647474 -0.647475 q -0.647472,0 -0.647472,0.71671 v 0.71671 h -0.647475 q -0.647474,0 -1.294948,0 -0.647474,0 -1.294946,0 -0.647475,0 -1.294949,0 -0.647475,0 -1.29495,0 -0.647472,0 -1.294947,0 -0.647474,0 -1.294948,0 -0.647473,0 -1.294947,0 -0.647474,0 -1.294948,0 -0.647475,0 -1.294949,0 -0.647473,0 -1.294948,0 -0.647473,0 -1.294948,0 -0.647473,0 -1.294947,0 -0.647473,0 -1.294947,0 -0.647475,0 -1.29495,0 -0.647474,0 -1.294948,0 -0.647473,0 -1.294947,0 h -0.647475 v -0.71671 q 0,-0.71671 -0.647472,-0.71671 h -0.647474 -0.647474 -0.647475 v -0.71671 q 0,-0.71671 -0.647476,-0.71671 h -0.647472 v -0.71671 -0.71671 -0.71671 q 0,-0.71671 0,-1.43342 0,-0.71671 0,-1.43342 0,-0.71672 0,-1.43343 0,-0.71671 0,-1.43342 0,-0.71671 0,-1.43342 0,-0.71671 0,-1.43342 0,-0.71671 0,-1.43342 0,-0.71671 0,-1.43342 0,-0.71671 0,-1.43342 0,-0.71671 0,-1.43342 0,-0.71672 0,-1.43343 0,-0.71671 0,-1.43342 0,-0.71671 0,-1.43342 0,-0.71671 0,-1.43342 0,-0.71671 0,-1.43342 0,-0.71671 0,-1.43342 v -0.71671 -0.71671 -0.71671 h 0.647472 q 0.647476,0 0.647476,-0.71671 v -0.71671 h 0.647475 q 0.647474,0 0.647474,-0.71672"
         style="fill:#488c48;fill-opacity:1;stroke-width:1.36242616" />
    </g>
    <text
       transform="scale(0.95063558,1.0519278)"
       id="text4894"
       y="67.322563"
       x="88.464478"
       style="font-style:normal;font-weight:normal;font-size:47.96887589px;line-height:1.25;font-family:sans-serif;letter-spacing:0px;word-spacing:0px;fill:#000000;fill-opacity:1;stroke:none;stroke-width:1.19922197"
       xml:space="preserve"><tspan
         style="font-style:normal;font-variant:normal;font-weight:bold;font-stretch:normal;font-family:UnDotum;-inkscape-font-specification:'UnDotum Bold';stroke-width:1.19922197;opacity:1;fill:#ffffff;fill-opacity:1"
         y="67.322563"
         x="88.464478"
         id="tspan4892"
         sodipodi:role="line">BITCHAIN</tspan></text>
  </g>
</svg>
